<?xml version="1.0" encoding="utf-8"?>
<!-- Generator: Adobe Illustrator 17.0.0, SVG Export Plug-In . SVG Version: 6.00 Build 0)  -->
<!DOCTYPE svg PUBLIC "-//W3C//DTD SVG 1.1//EN" "http://www.w3.org/Graphics/SVG/1.1/DTD/svg11.dtd">
<svg version="1.1" id="Capa_1" xmlns="http://www.w3.org/2000/svg" xmlns:xlink="http://www.w3.org/1999/xlink" x="0px" y="0px"
	 width="2500px" height="1756.522px" viewBox="0 0 2500 1756.522" enable-background="new 0 0 2500 1756.522" xml:space="preserve">
<g>
	<path fill="#BF0411" d="M1820.228,232.174c-185.454-50.258-377.978-76.911-569.982-76.911
		c-115.5,0.067-230.806,9.479-344.788,28.145C768.238,205.535,630.512,238.711,502.851,295
		c-173.406,76.898-392.556,218.644-392.556,433.268c0,270.912,350.326,436.782,569.982,496.586
		c185.467,50.271,377.472,76.405,569.969,76.405c115.093,0,230.706-9.039,344.295-27.638
		c137.726-22.632,274.946-55.29,402.62-111.592c173.406-76.898,392.543-218.631,392.543-433.761
		C2389.704,457.355,2039.884,291.991,1820.228,232.174z M1773.991,1110.253c-172.407,37.703-348.834,58.805-525.755,58.805
		c-106.054,0-212.108-7.536-317.163-21.608c-125.651-17.6-251.315-40.712-370.429-84.446
		c-136.714-50.258-364.398-162.343-364.398-336.76c0-218.138,356.357-345.8,525.742-383.503
		c172.9-37.69,349.327-59.311,526.248-59.311c106.067,0,212.108,8.041,317.149,22.14c125.159,17.081,251.316,40.699,369.937,84.433
		c136.714,50.258,364.904,161.85,364.904,336.254C2300.226,944.888,1943.869,1072.563,1773.991,1110.253z"/>
	<path fill="#BF0411" d="M525.963,453.814h184.975v201.057l148.27-201.057h169.891L859.208,705.635l209.099,294.543H895.394
		L710.938,758.914v241.264H557.635V492.023l-31.672-15.071V453.814L525.963,453.814z M1158.771,476.952v-23.138h182.459v546.364
		h-152.797V492.023L1158.771,476.952L1158.771,476.952z M1659.896,492.023l-29.156-15.071v-23.138h220.162l183.963,546.364h-149.282
		l-123.666-359.379l-123.654,359.379h-147.751L1659.896,492.023L1659.896,492.023z"/>
</g>
<g>
	<path fill="#BF0411" d="M515.07,1405.798h147.34v46.072h-81.465v69.917h76.436v44.052h-76.436v112.353H515.07V1405.798z"/>
	<path fill="#BF0411" d="M748.405,1615.953l-15.086,62.238h-63.864l73.419-272.394h78.95l65.876,272.394h-63.864l-14.583-62.238
		H748.405z M803.218,1574.731l-11.063-56.984c-3.52-16.57-8.046-43.647-11.063-61.834h-1.508
		c-3.521,18.187-8.549,46.477-12.069,62.238l-12.572,56.58H803.218z"/>
	<path fill="#BF0411" d="M1079.293,1674.151c-9.554,3.637-28.161,6.466-51.292,6.466c-86.493,0-127.729-57.389-127.729-134.58
		c0-102.652,70.904-142.663,136.78-142.663c23.132,0,39.224,3.638,45.761,7.274l-11.063,44.456
		c-7.543-2.829-16.092-5.254-30.675-5.254c-37.212,0-70.905,25.865-70.905,93.357c0,65.067,30.675,90.528,70.905,90.528
		c11.063,0,23.635-2.021,31.681-4.041L1079.293,1674.151z"/>
	<path fill="#BF0411" d="M1164.266,1454.699h-59.841v-48.901h186.062v48.901h-60.345v223.492h-65.875V1454.699z"/>
	<path fill="#BF0411" d="M1389.042,1405.798v177.016c0,40.01,15.087,52.135,32.184,52.135c19.109,0,32.687-10.912,32.687-52.135
		v-177.016h65.876v167.72c0,69.917-32.687,107.907-98.06,107.907c-70.904,0-98.562-39.202-98.562-107.503v-168.124H1389.042z"/>
	<path fill="#BF0411" d="M1576.612,1409.84c20.618-3.233,46.768-5.254,71.91-5.254c36.207,0,68.391,4.041,90.517,20.207
		c20.618,14.953,26.652,33.14,26.652,56.58c0,29.099-17.601,55.368-52.299,68.301v0.808c23.133,7.275,34.698,24.653,41.235,53.752
		c6.537,30.311,15.589,63.854,21.624,73.958h-68.894c-4.022-7.679-11.565-35.16-16.595-65.067
		c-6.034-33.948-16.595-43.647-38.721-43.647h-9.555v108.715h-65.876V1409.84z M1642.488,1528.658h11.566
		c28.663,0,45.258-18.591,45.258-42.436c0-23.036-11.565-39.605-41.235-40.414c-5.531,0-12.068,0.404-15.589,1.616V1528.658z"/>
	<path fill="#BF0411" d="M1866.761,1615.953l-15.086,62.238h-63.864l73.418-272.394h78.951l65.875,272.394h-63.864l-14.583-62.238
		H1866.761z M1921.573,1574.731l-11.063-56.984c-3.52-16.57-8.046-43.647-11.063-61.834h-1.509
		c-3.521,18.187-8.549,46.477-12.069,62.238l-12.571,56.58H1921.573z"/>
</g>
</svg>
