<?xml version="1.0" encoding="utf-8"?>
<!-- Generator: Adobe Illustrator 17.0.0, SVG Export Plug-In . SVG Version: 6.00 Build 0)  -->
<!DOCTYPE svg PUBLIC "-//W3C//DTD SVG 1.1//EN" "http://www.w3.org/Graphics/SVG/1.1/DTD/svg11.dtd">
<svg version="1.1" id="Capa_1" xmlns="http://www.w3.org/2000/svg" xmlns:xlink="http://www.w3.org/1999/xlink" x="0px" y="0px"
	 width="2500px" height="1756.522px" viewBox="0 0 2500 1756.522" enable-background="new 0 0 2500 1756.522" xml:space="preserve">
<g>
	<path fill="#BF0411" d="M1820.228,382.174c-185.454-50.258-377.978-76.911-569.982-76.911
		c-115.5,0.067-230.806,9.479-344.788,28.145C768.238,355.535,630.512,388.711,502.851,445
		c-173.406,76.898-392.556,218.644-392.556,433.268c0,270.912,350.326,436.782,569.982,496.586
		c185.467,50.271,377.472,76.405,569.969,76.405c115.093,0,230.706-9.039,344.295-27.638
		c137.726-22.632,274.946-55.29,402.62-111.592c173.406-76.898,392.543-218.631,392.543-433.761
		C2389.704,607.355,2039.884,441.991,1820.228,382.174z M1773.991,1260.253c-172.407,37.703-348.834,58.805-525.755,58.805
		c-106.054,0-212.108-7.536-317.163-21.608c-125.651-17.6-251.315-40.712-370.429-84.446
		c-136.714-50.258-364.398-162.343-364.398-336.76c0-218.138,356.357-345.8,525.742-383.503
		c172.9-37.69,349.327-59.311,526.248-59.311c106.067,0,212.108,8.041,317.149,22.14c125.159,17.081,251.316,40.699,369.937,84.433
		c136.714,50.258,364.904,161.85,364.904,336.254C2300.226,1094.888,1943.869,1222.563,1773.991,1260.253z"/>
	<path fill="#BF0411" d="M525.963,603.814h184.975v201.057l148.27-201.057h169.891L859.208,855.635l209.099,294.543H895.394
		L710.938,908.914v241.264H557.635V642.023l-31.672-15.071V603.814L525.963,603.814z M1158.771,626.952v-23.138h182.459v546.364
		h-152.797V642.023L1158.771,626.952L1158.771,626.952z M1659.896,642.023l-29.156-15.071v-23.138h220.162l183.963,546.364h-149.282
		l-123.666-359.379l-123.654,359.379h-147.751L1659.896,642.023L1659.896,642.023z"/>
</g>
</svg>
