<?xml version="1.0" encoding="utf-8"?>
<!-- Generator: Adobe Illustrator 17.0.0, SVG Export Plug-In . SVG Version: 6.00 Build 0)  -->
<!DOCTYPE svg PUBLIC "-//W3C//DTD SVG 1.1//EN" "http://www.w3.org/Graphics/SVG/1.1/DTD/svg11.dtd">
<svg version="1.1" id="Capa_1" xmlns="http://www.w3.org/2000/svg" xmlns:xlink="http://www.w3.org/1999/xlink" x="0px" y="0px"
	 width="2500px" height="1756.522px" viewBox="0 0 2500 1756.522" enable-background="new 0 0 2500 1756.522" xml:space="preserve">
<g>
	<path fill="#BF0411" d="M1820.228,232.174c-185.454-50.258-377.978-76.911-569.982-76.911
		c-115.5,0.067-230.806,9.479-344.788,28.145C768.238,205.535,630.512,238.711,502.851,295
		c-173.406,76.898-392.556,218.644-392.556,433.268c0,270.912,350.326,436.782,569.982,496.586
		c185.467,50.271,377.472,76.405,569.969,76.405c115.093,0,230.706-9.039,344.295-27.638
		c137.726-22.632,274.946-55.29,402.62-111.592c173.406-76.898,392.543-218.631,392.543-433.761
		C2389.704,457.355,2039.884,291.991,1820.228,232.174z M1773.991,1110.253c-172.407,37.703-348.834,58.805-525.755,58.805
		c-106.054,0-212.108-7.536-317.163-21.608c-125.651-17.6-251.315-40.712-370.429-84.446
		c-136.714-50.258-364.398-162.343-364.398-336.76c0-218.138,356.357-345.8,525.742-383.503
		c172.9-37.69,349.327-59.311,526.248-59.311c106.067,0,212.108,8.041,317.149,22.14c125.159,17.081,251.316,40.699,369.937,84.433
		c136.714,50.258,364.904,161.85,364.904,336.254C2300.226,944.888,1943.869,1072.563,1773.991,1110.253z"/>
	<path fill="#BF0411" d="M525.963,453.814h184.975v201.057l148.27-201.057h169.891L859.208,705.635l209.099,294.543H895.394
		L710.938,758.914v241.264H557.635V492.023l-31.672-15.071V453.814L525.963,453.814z M1158.771,476.952v-23.138h182.459v546.364
		h-152.797V492.023L1158.771,476.952L1158.771,476.952z M1659.896,492.023l-29.156-15.071v-23.138h220.162l183.963,546.364h-149.282
		l-123.666-359.379l-123.654,359.379h-147.751L1659.896,492.023L1659.896,492.023z"/>
</g>
<g enable-background="new    ">
	<path fill="#BF0411" d="M503.412,1670.803l-74.318-255.846h71.365l23.624,110.462c5.906,27.33,12.797,58.837,17.226,88.824h0.984
		c4.43-30.367,9.844-61.114,15.75-89.963l22.64-109.323h70.873l-75.795,255.846H503.412z"/>
	<path fill="#BF0411" d="M819.876,1558.444h-75.795v69.086h85.638v43.273H679.606v-255.846h144.207v43.273h-79.732v58.837h75.795
		V1558.444z"/>
	<path fill="#BF0411" d="M937.995,1414.957v102.49h67.428v-102.49h64.475v255.846h-64.475v-107.045h-67.428v107.045h-64.475
		v-255.846H937.995z"/>
	<path fill="#BF0411" d="M1191.462,1414.957v255.846h-64.475v-255.846H1191.462z"/>
	<path fill="#BF0411" d="M1408.011,1667.007c-9.352,3.416-27.562,6.073-50.201,6.073c-84.654,0-125.012-53.902-125.012-126.404
		c0-96.417,69.396-133.996,133.87-133.996c22.641,0,38.39,3.416,44.788,6.833l-10.828,41.755
		c-7.382-2.657-15.749-4.935-30.022-4.935c-36.421,0-69.396,24.294-69.396,87.686c0,61.114,30.022,85.029,69.396,85.029
		c10.828,0,23.133-1.898,31.007-3.796L1408.011,1667.007z"/>
	<path fill="#BF0411" d="M1505.946,1414.957v166.262c0,37.58,14.766,48.968,31.499,48.968c18.703,0,31.991-10.249,31.991-48.968
		v-166.262h64.475v157.531c0,65.67-31.991,101.352-95.974,101.352c-69.396,0-96.466-36.821-96.466-100.972v-157.911H1505.946z"/>
	<path fill="#BF0411" d="M1689.526,1414.957h64.475v213.711h85.146v42.135h-149.62V1414.957z"/>
	<path fill="#BF0411" d="M2059.146,1538.325c0,96.416-44.296,135.515-107.294,135.515c-75.302,0-104.832-61.494-104.832-131.719
		c0-69.846,35.928-130.201,109.262-130.201C2036.506,1411.92,2059.146,1479.867,2059.146,1538.325z M1913.954,1542.88
		c0,58.078,14.273,87.686,40.358,87.686c27.069,0,37.405-37.959,37.405-89.963c0-44.792-8.859-85.408-37.897-85.408
		C1928.228,1455.195,1913.954,1487.839,1913.954,1542.88z"/>
</g>
</svg>
