<?xml version="1.0" encoding="utf-8"?>
<!-- Generator: Adobe Illustrator 17.0.0, SVG Export Plug-In . SVG Version: 6.00 Build 0)  -->
<!DOCTYPE svg PUBLIC "-//W3C//DTD SVG 1.1//EN" "http://www.w3.org/Graphics/SVG/1.1/DTD/svg11.dtd">
<svg version="1.1" id="Layer_1" xmlns="http://www.w3.org/2000/svg" xmlns:xlink="http://www.w3.org/1999/xlink" x="0px" y="0px"
	 width="1213.439px" height="476.976px" viewBox="-303.379 191.601 1213.439 476.976"
	 enable-background="new -303.379 191.601 1213.439 476.976" xml:space="preserve">
<g>
	<g>
		<defs>
			<path id="SVGID_1_" d="M507.401,206.618c0,0-282.758-3.434-414.952,0c0,0-14.755-2.471-15.109,14.745
				c0,0,0.697,52.887-0.702,56.747c-1.405,3.866,0.354,15.38-18.267,16.425c0,0-195.45,3.949-218.987,4.303
				c0,0-13.345,1.316-15.817,3.777c-2.451,2.466-5.791,7.731-7.898,12.294c0,0-81.783,164.17-108.125,216.537
				c0,0-8.793,18.439-9.313,21.43c-0.473,2.643-3.897,13.761,7.284,15.359c18.007,2.601,59.031,1.764,67.731,2.029
				c8.694,0.271,233.04,2.284,280.823,2.633c0,0,14.053-0.432,16.691,4.043c0,0,4.745,2.633,5,15.031c0,0,0.265,47.689,0.796,50.847
				c0.526,3.158-0.271,9.214,3.949,13.174c0,0,0.531,3.694,10.01,4.23c0,0,123.063,1.041,174.977,0.78
				c51.914-0.265,205.07,0.109,224.305,0.109c19.24,0,23.194,0.364,28.72-1.212c0,0,7.919-1.374,8.71-10.583
				c0,0,1.046-46.753,1.493-63.188c0,0,3.554-13.137,14.88-13.137c0,0,161.881-0.338,191.485-0.255
				c13.449,0.031,29.516-0.708,36.108-1.498c4.563-0.536,6.535-2.903,10.187-9.308c0,0,57.018-115.165,72.814-145.732
				c15.827-30.556,46.389-92.491,49.541-103.297c0,0,3.699-7.383-1.311-12.123c-5-4.745-9.49-3.689-13.439-3.954
				c0,0-263.784-1.837-288.034-1.837c-24.23,0-47.169,0.52-52.7-0.271c-5.525-0.786-15.015-4.75-15.281-12.659
				c0,0-0.796-49.276-0.536-56.393c0.265-7.112-2.638-17.908-10.27-18.179L507.401,206.618L507.401,206.618z"/>
		</defs>
		<clipPath id="SVGID_2_">
			<use xlink:href="#SVGID_1_"  overflow="visible"/>
		</clipPath>
		<g transform="matrix(1 0 0 1 0 0)" clip-path="url(#SVGID_2_)">
			
				<image overflow="visible" enable-background="new    " width="1243" height="592" xlink:href="CE92B632.jpg"  transform="matrix(1.0483 0 0 1.0483 -340.146 120.6708)">
			</image>
		</g>
	</g>
</g>
<path fill="#FFFFFF" d="M585.782,609.708c3.491,3.538,5.239,7.773,5.239,12.752c0,5.052-1.748,9.329-5.239,12.887
	c-3.517,3.548-7.778,5.307-12.789,5.307c-5.01,0-9.271-1.759-12.768-5.307c-3.491-3.559-5.239-7.836-5.239-12.887
	c0-4.979,1.774-9.219,5.265-12.752c3.533-3.528,7.778-5.291,12.742-5.291C577.977,604.417,582.254,606.18,585.782,609.708z
	 M587.868,607.695c-4.121-4.09-9.043-6.119-14.87-6.119c-5.76,0-10.697,2.029-14.766,6.119c-4.095,4.063-6.145,9.011-6.145,14.766
	c0,5.848,2.024,10.817,6.098,14.896c4.079,4.121,9.017,6.181,14.812,6.181c5.827,0,10.749-2.06,14.87-6.181
	c4.095-4.105,6.129-9.048,6.129-14.896C593.992,616.706,591.963,611.758,587.868,607.695z M576.115,621.513
	c-0.859,0.343-2.133,0.51-3.866,0.51h-3.626v-8.356h3.434c2.242,0,3.887,0.312,4.911,0.9c1.009,0.536,1.504,1.675,1.504,3.345
	C578.472,619.666,577.691,620.878,576.115,621.513z M564.564,633.938h4.053v-9.11h3.179c2.18,0,3.663,0.281,4.526,0.78
	c1.431,0.832,2.143,2.596,2.143,5.276v1.831l0.12,0.754c0.01,0.073,0.026,0.156,0.047,0.208c0,0.088,0.036,0.187,0.052,0.26h3.782
	l-0.104-0.291c-0.115-0.177-0.182-0.588-0.229-1.207c-0.016-0.593-0.052-1.16-0.052-1.691v-1.68c0-1.155-0.421-2.367-1.238-3.58
	c-0.853-1.217-2.17-1.967-3.985-2.263c1.431-0.234,2.549-0.604,3.335-1.134c1.519-0.957,2.268-2.456,2.268-4.526
	c0-2.882-1.186-4.818-3.579-5.817c-1.337-0.546-3.418-0.817-6.275-0.817h-8.044V633.938z"/>
</svg>
